<svg xmlns:xlink="http://www.w3.org/1999/xlink" xmlns="http://www.w3.org/2000/svg" width="52" height="52" viewBox="0 0 52 52"><defs><filter id="logo_svg__a" width="116.7%" height="116.7%" x="-8.3%" y="-4.2%" filterUnits="objectBoundingBox"><feOffset dy="2" in="SourceAlpha" result="shadowOffsetOuter1"/><feGaussianBlur in="shadowOffsetOuter1" result="shadowBlurOuter1" stdDeviation="1"/><feColorMatrix in="shadowBlurOuter1" values="0 0 0 0 0.338939226 0 0 0 0 0.387652637 0 0 0 0 0.405718537 0 0 0 0.129840353 0"/></filter><circle id="logo_svg__b" cx="24" cy="24" r="24"/></defs><g fill="none" fill-rule="evenodd"><g transform="translate(2)"><use fill="#000" filter="url(#logo_svg__a)" xlink:href="#logo_svg__b"/><use fill="#FFF" xlink:href="#logo_svg__b"/></g><path fill="#FF8300" d="M45.394 31.458l-5.612-8.42 4.3-6.341c.507-.742.307-1.486-.335-1.756-.644-.266-1.57-.017-2.16.665l-3.828 4.4-2.643-3.97c-.499-.75-1.593-1.141-2.43-.873-.834.268-1.243 1.17-.903 2.006l3.079 6.256-4.426 5.014c-.59.681-.68 1.858-.2 2.618l1.106 1.754c.481.762 1.29.774 1.792.03l3.718-5.487 3.017 5.54c.34.833 1.328 1.317 2.195 1.084l2.663-.728c.867-.237 1.168-1.043.667-1.792"/><path fill="#5B2B82" d="M13.347 30.545c-1.927 0-3.492-2.735-3.492-6.112 0-3.371 1.565-6.106 3.492-6.106 1.926 0 3.49 2.735 3.49 6.106 0 3.377-1.564 6.112-3.49 6.112M12.91 15.71c-4.099 0-7.42 3.906-7.42 8.725 0 4.824 3.321 8.73 7.42 8.73 4.096 0 7.417-3.906 7.417-8.73 0-4.82-3.321-8.725-7.417-8.725"/><path fill="#BFBE00" d="M22.535 13.094c-1.034-.009-1.391.854-1.328 1.733l.002 11.356c.033 1.066.557 1.722 1.749 1.738l6.228.005c.987.019 1.522-.211 1.614-1.026v-1.968c-.011-.91-.934-.905-1.562-.89h-2.56c-1.013-.01-1.249-.178-1.29-1.186l.013-8.067c.018-.942-.306-1.691-1.343-1.698l-1.523.003z"/></g></svg>